<svg width="272" height="60" viewBox="0 0 272 60" fill="none" xmlns="http://www.w3.org/2000/svg">
	  <path fill-rule="evenodd" clip-rule="evenodd" d="M29.9896 12.9997C34.6783 12.9997 38.9223 14.8999 41.9981 17.971L51.1859 8.78002C48.4049 5.99233 45.1008 3.78165 41.4633 2.27492C37.8258 0.768187 33.9266 -0.00490868 29.9896 2.3451e-05C13.427 2.3451e-05 0 13.4317 0 30C0 40.2553 5.1475 49.3045 12.9952 54.7161V30C12.9952 20.6112 20.6041 12.9997 29.9896 12.9997ZM29.9896 46.9992C27.6874 46.9992 25.4941 46.5391 23.4915 45.7101V59.2846C25.5842 59.7483 27.7577 59.9988 29.9896 59.9988C38.1393 59.9988 45.5258 56.7428 50.9308 51.4647L41.7418 42.2738C38.583 45.3103 34.3706 47.0041 29.9896 46.9992Z" fill="#4A47D2"></path>
	  <path fill-rule="evenodd" clip-rule="evenodd" d="M29.9896 36.4993C31.6516 36.4993 33.1637 35.8694 34.3131 34.8425L29.7227 30.2494L34.5753 25.3963C33.8187 24.6425 32.888 24.0869 31.8656 23.7785C30.8432 23.4702 29.7606 23.4188 28.7135 23.6287C27.6665 23.8386 26.6874 24.3035 25.8627 24.9822C25.0381 25.6608 24.3934 26.5324 23.9856 27.5197C23.5779 28.507 23.4197 29.5796 23.5251 30.6426C23.6305 31.7056 23.9962 32.7262 24.5898 33.6142C25.1834 34.5021 25.9867 35.23 26.9285 35.7334C27.8704 36.2369 28.9217 36.5003 29.9896 36.5004" fill="#4A47D2"></path>
	  <path fill-rule="evenodd" clip-rule="evenodd" d="M29.9896 36.4993C31.6516 36.4993 33.1637 35.8694 34.3131 34.8425L29.7227 30.2494L34.5753 25.3963C33.8187 24.6425 32.888 24.0869 31.8656 23.7785C30.8432 23.4702 29.7606 23.4188 28.7135 23.6287C27.6665 23.8386 26.6874 24.3035 25.8627 24.9822C25.0381 25.6608 24.3934 26.5324 23.9856 27.5197C23.5779 28.507 23.4197 29.5796 23.5251 30.6426C23.6305 31.7056 23.9962 32.7262 24.5898 33.6142C25.1834 34.5021 25.9867 35.23 26.9285 35.7334C27.8704 36.2369 28.9217 36.5003 29.9896 36.5004" fill="#4A47D2"></path>
	  <path fill-rule="evenodd" clip-rule="evenodd" d="M29.9896 36.4993C31.6516 36.4993 33.1637 35.8694 34.3131 34.8425L29.7227 30.2494L34.5753 25.3963C33.8187 24.6425 32.888 24.0869 31.8656 23.7785C30.8432 23.4702 29.7606 23.4188 28.7135 23.6287C27.6665 23.8386 26.6874 24.3035 25.8627 24.9822C25.0381 25.6608 24.3934 26.5324 23.9856 27.5197C23.5779 28.507 23.4197 29.5796 23.5251 30.6426C23.6305 31.7056 23.9962 32.7262 24.5898 33.6142C25.1834 34.5021 25.9867 35.23 26.9285 35.7334C27.8704 36.2369 28.9217 36.5003 29.9896 36.5004" fill="#4A47D2"></path>
	  <path fill-rule="evenodd" clip-rule="evenodd" d="M29.9896 36.4993C31.6516 36.4993 33.1637 35.8694 34.3131 34.8425L29.7227 30.2494L34.5753 25.3963C33.8187 24.6425 32.888 24.0869 31.8656 23.7785C30.8432 23.4702 29.7606 23.4188 28.7135 23.6287C27.6665 23.8386 26.6874 24.3035 25.8627 24.9822C25.0381 25.6608 24.3934 26.5324 23.9856 27.5197C23.5779 28.507 23.4197 29.5796 23.5251 30.6426C23.6305 31.7056 23.9962 32.7262 24.5898 33.6142C25.1834 34.5021 25.9867 35.23 26.9285 35.7334C27.8704 36.2369 28.9217 36.5003 29.9896 36.5004" fill="#4A47D2"></path>
	  <path fill-rule="evenodd" clip-rule="evenodd" d="M34.313 34.8419C34.9969 34.2342 35.5443 33.4884 35.9191 32.6537C36.2939 31.8191 36.4877 30.9144 36.4877 29.9994C36.4888 29.1435 36.3204 28.2959 35.9921 27.5055C35.6638 26.7151 35.1823 25.9977 34.5752 25.3945L29.7227 30.2488L34.313 34.8419Z" fill="#4A47D2"></path>
	  <path fill-rule="evenodd" clip-rule="evenodd" d="M34.313 34.8439C34.9969 34.2361 35.5443 33.4904 35.9191 32.6557C36.2939 31.821 36.4877 30.9164 36.4877 30.0013C36.4888 29.1455 36.3204 28.2978 35.9921 27.5075C35.6638 26.7171 35.1823 25.9996 34.5752 25.3965L29.7227 30.2507L34.313 34.8439Z" fill="#4A47D2"></path>
	  <path d="M71.724 27.1802C70.4282 23.9064 67.4362 22.0646 63.6725 22.0646H63.6737C58.8127 22.0646 55 25.6529 55 30.7208C55 35.7887 58.8127 39.3282 63.6737 39.3282C67.4374 39.3282 70.4294 37.5102 71.7252 34.2603H69.0087C68.0607 36.2736 66.2163 37.4125 63.6737 37.4125C60.0338 37.4125 57.3173 34.8428 57.3173 30.7208C57.3173 26.5738 60.0338 24.0041 63.6737 24.0041C66.2163 24.0041 68.0607 25.143 69.0087 27.1802H71.724Z" fill="#4A47D2"></path>
	  <path d="M75.0884 39.1828H77.3555L77.3567 39.1839V31.9585C77.3567 28.8789 79.0027 27.933 81.1705 27.933H81.7694V25.654C79.6004 25.654 78.1295 26.5749 77.3567 28.0545V25.897H75.0884V39.1828Z" fill="#4A47D2"></path>
	  <path d="M96.1516 25.8947H93.8075L89.571 36.6619L85.2832 25.8959H82.7652L88.2741 39.0386L85.5821 45.4396H87.925L96.1516 25.8947Z" fill="#4A47D2"></path>
	  <path d="M113.997 27.7139H115.767V35.5457C115.767 38.2131 117.139 39.1828 119.558 39.1828H121.601V37.316H119.931C118.534 37.316 118.035 36.855 118.035 35.5457V27.7139H121.601V25.8947H118.035V22.5495H115.767V25.8947H113.997V27.7139Z" fill="#4A47D2"></path>
	  <path d="M154.728 39.1828H156.995L156.996 39.1839V31.9585C156.996 28.8789 158.641 27.933 160.81 27.933H161.409V25.654C159.238 25.654 157.769 26.5749 156.996 28.0545V25.897H154.728V39.1828Z" fill="#4A47D2"></path>
	  <path d="M192.092 30.1621C191.394 27.3744 189.176 25.6767 185.786 25.6767C181.896 25.6767 179.13 28.3441 179.13 32.5149C179.13 36.7335 181.896 39.4008 185.786 39.4008C189.176 39.4008 191.394 37.5579 192.092 34.9155H189.65C189.15 36.5881 187.806 37.534 185.786 37.534C183.292 37.534 181.448 35.8125 181.448 32.5149C181.448 29.265 183.292 27.5435 185.785 27.5435C187.804 27.5435 189.176 28.5621 189.649 30.1621H192.092Z" fill="#4A47D2"></path>
	  <path d="M209.814 35.2788C209.964 37.7043 212.207 39.4008 215.398 39.4008C218.414 39.4008 220.384 37.752 220.384 35.5707C220.283 30.8173 212.357 32.5388 212.357 29.3865C212.357 28.3191 213.354 27.5435 215.024 27.5435C216.843 27.5435 217.89 28.5144 217.991 29.8476H220.259C220.11 27.2528 218.114 25.6767 215.099 25.6767C212.058 25.6767 210.089 27.3494 210.089 29.3865C210.089 34.3329 218.165 32.6115 218.165 35.5695C218.165 36.6619 217.168 37.534 215.373 37.534C213.453 37.534 212.282 36.5643 212.157 35.2788H209.814Z" fill="#4A47D2"></path>
	  <path fill-rule="evenodd" clip-rule="evenodd" d="M105.798 25.6767C109.462 25.6767 112.279 28.3441 112.279 32.49C112.279 36.612 109.462 39.402 105.798 39.402C103.304 39.402 101.534 38.0916 100.687 36.7335V45.4873H98.4187V25.8947H100.687V28.3441C101.51 26.9372 103.304 25.6767 105.798 25.6767ZM100.687 32.5149C100.687 29.4354 102.856 27.5924 105.324 27.5924C107.842 27.5924 109.961 29.3627 109.961 32.4911C109.961 35.6184 107.842 37.4613 105.324 37.4613C102.856 37.4613 100.687 35.6422 100.687 32.5149Z" fill="#4A47D2"></path>
	  <path fill-rule="evenodd" clip-rule="evenodd" d="M130.299 39.4008C126.435 39.4008 123.494 36.7335 123.494 32.5149C123.494 28.3191 126.535 25.6767 130.399 25.6767C134.288 25.6767 137.304 28.3191 137.304 32.5149C137.304 36.7335 134.187 39.4008 130.3 39.4008H130.299ZM134.986 32.5149C134.986 35.8852 132.668 37.4613 130.299 37.4613C127.931 37.4613 125.813 35.8852 125.813 32.5149C125.813 29.1685 127.982 27.5924 130.375 27.5924C132.718 27.5924 134.986 29.1685 134.986 32.5149Z" fill="#4A47D2"></path>
	  <path fill-rule="evenodd" clip-rule="evenodd" d="M145.903 32.1266H142.563V39.1828H140.295V22.2815H145.903C149.992 22.2815 151.911 24.464 151.911 27.229C151.911 29.7987 150.216 32.1266 145.903 32.1266ZM149.592 27.229C149.592 29.1208 148.495 30.3086 145.903 30.3086H142.563V24.1006H145.903C148.495 24.1006 149.592 25.2645 149.592 27.229Z" fill="#4A47D2"></path>
	  <path fill-rule="evenodd" clip-rule="evenodd" d="M169.982 39.4008C166.118 39.4008 163.177 36.7335 163.177 32.5149C163.177 28.3191 166.218 25.6767 170.082 25.6767C173.971 25.6767 176.987 28.3191 176.987 32.5149C176.987 36.7335 173.87 39.4008 169.983 39.4008H169.982ZM174.668 32.5149C174.668 35.8852 172.351 37.4613 169.982 37.4613C167.614 37.4613 165.496 35.8852 165.496 32.5149C165.496 29.1685 167.663 27.5924 170.057 27.5924C172.401 27.5924 174.668 29.1685 174.668 32.5149Z" fill="#4A47D2"></path>
	  <path fill-rule="evenodd" clip-rule="evenodd" d="M201.016 39.4008C197.127 39.4008 194.26 36.7335 194.26 32.5149C194.26 28.3203 197.027 25.6767 201.016 25.6767C204.979 25.6767 207.572 28.3929 207.572 32.0301C207.572 32.5149 207.546 32.9022 207.497 33.3632H196.579C196.754 36.0544 198.697 37.534 201.016 37.534C203.059 37.534 204.356 36.5154 204.854 35.0847H207.297C206.599 37.5102 204.405 39.4008 201.016 39.4008ZM205.229 31.569H196.603C196.853 28.9743 198.697 27.5435 200.915 27.5435C203.259 27.5435 205.252 28.9743 205.229 31.569Z" fill="#4A47D2"></path>
	  <path d="M228.409 39.4008C225.218 39.4008 222.974 37.7043 222.825 35.2788H225.168C225.293 36.5643 226.464 37.534 228.384 37.534C230.178 37.534 231.176 36.6619 231.176 35.5695C231.176 32.6115 223.099 34.3329 223.099 29.3865C223.099 27.3494 225.069 25.6767 228.11 25.6767C231.126 25.6767 233.12 27.2528 233.27 29.8476H231.001C230.902 28.5144 229.855 27.5435 228.035 27.5435C226.364 27.5435 225.367 28.3191 225.367 29.3865C225.367 32.5388 233.294 30.8173 233.394 35.5707C233.394 37.752 231.424 39.4008 228.409 39.4008Z" fill="#4A47D2"></path>
	  <path fill-rule="evenodd" clip-rule="evenodd" d="M236.902 39.4525H239.171V26.1644H236.902V39.4525ZM236.529 22.5035C236.529 21.6541 237.202 21 238.075 21C238.898 21 239.57 21.6541 239.57 22.5035C239.57 23.3517 238.898 24.0069 238.075 24.0069C237.871 24.01 237.668 23.9732 237.479 23.8987C237.29 23.8242 237.119 23.7136 236.975 23.5734C236.83 23.4332 236.717 23.2662 236.64 23.0824C236.564 22.8986 236.526 22.7017 236.529 22.5035ZM253.031 31.9352C253.031 29.2202 251.51 27.8382 249.217 27.8382C246.899 27.8382 245.303 29.244 245.303 32.1056V39.4525H243.035V26.1667H245.303V28.0574C246.201 26.6754 247.847 25.9237 249.691 25.9237C252.856 25.9237 255.274 27.8144 255.274 31.6218V39.4536H253.031V31.9352ZM265.07 27.8621C262.577 27.8621 260.459 29.6324 260.459 32.7608C260.459 35.888 262.577 37.731 265.07 37.731C267.563 37.731 269.707 35.9119 269.707 32.7846C269.707 29.705 267.563 27.8621 265.07 27.8621ZM264.622 25.9464C267.114 25.9464 268.909 27.1592 269.707 28.5899V26.1644H272V39.7432C272 43.4053 269.482 46 265.468 46C261.88 46 259.312 44.2286 258.863 41.392H261.107C261.606 42.9931 263.226 44.0832 265.468 44.0832C267.887 44.0832 269.706 42.5809 269.706 39.7432V36.9554C268.884 38.3862 267.114 39.6716 264.622 39.6716C260.956 39.6716 258.141 36.8828 258.141 32.7608C258.141 28.6138 260.958 25.9475 264.622 25.9475" fill="#4A47D2"></path>
	</svg>